HIERARCHY
ROOT Hips
{
	OFFSET 0.000000 100.481300 0.000000
	CHANNELS 6 Xposition Yposition Zposition Xrotation Yrotation Zrotation
	JOINT Spine
	{
		OFFSET -0.279200 12.230698 -2.892100
		CHANNELS 3 Xrotation Yrotation Zrotation
		JOINT Spine1
		{
			OFFSET -0.325700 14.269203 -3.374200
			CHANNELS 3 Xrotation Yrotation Zrotation
			JOINT Spine2
			{
				OFFSET -0.372300 16.307602 -0.352600
				CHANNELS 3 Xrotation Yrotation Zrotation
				JOINT Neck
				{
					OFFSET -0.418800 17.814194 8.416900
					CHANNELS 3 Xrotation Yrotation Zrotation
					JOINT Head
					{
						OFFSET 0.000000 7.031097 3.806800
						CHANNELS 3 Xrotation Yrotation Zrotation
						JOINT HeadTop_End
						{
							OFFSET 0.000000 24.646606 12.978600
							CHANNELS 3 Xrotation Yrotation Zrotation
							End Site
							{
								OFFSET 0.000000 27.854965 0.000000
							}
						}
					}
				}
				JOINT LeftShoulder
				{
					OFFSET 16.952999 14.495407 -7.737500
					CHANNELS 3 Xrotation Yrotation Zrotation
					JOINT LeftArm
					{
						OFFSET 9.308998 -2.777710 0.208600
						CHANNELS 3 Xrotation Yrotation Zrotation
						JOINT LeftForeArm
						{
							OFFSET 29.972298 0.000000 0.000000
							CHANNELS 3 Xrotation Yrotation Zrotation
							JOINT LeftHand
							{
								OFFSET 26.026505 0.000000 0.000000
								CHANNELS 3 Xrotation Yrotation Zrotation
								JOINT LeftHandThumb1
								{
									OFFSET 12.240501 -7.147949 9.207150
									CHANNELS 3 Xrotation Yrotation Zrotation
									JOINT LeftHandThumb2
									{
										OFFSET 4.138618 -2.389435 2.389433
										CHANNELS 3 Xrotation Yrotation Zrotation
										JOINT LeftHandThumb3
										{
											OFFSET 2.726913 -1.574387 1.574386
											CHANNELS 3 Xrotation Yrotation Zrotation
											JOINT LeftHandThumb4
											{
												OFFSET 3.941010 -2.275345 2.275342
												CHANNELS 3 Xrotation Yrotation Zrotation
												End Site
												{
													OFFSET -0.005798 5.087799 0.009903
												}
											}
										}
									}
								}
								JOINT LeftHandIndex1
								{
									OFFSET 24.424698 -1.985611 5.953459
									CHANNELS 3 Xrotation Yrotation Zrotation
									JOINT LeftHandIndex2
									{
										OFFSET 6.426697 0.000000 0.000000
										CHANNELS 3 Xrotation Yrotation Zrotation
										JOINT LeftHandIndex3
										{
											OFFSET 5.337898 0.000000 0.000000
											CHANNELS 3 Xrotation Yrotation Zrotation
											JOINT LeftHandIndex4
											{
												OFFSET 4.409401 0.000000 0.000000
												CHANNELS 3 Xrotation Yrotation Zrotation
												End Site
												{
													OFFSET 0.000000 4.409363 0.014373
												}
											}
										}
									}
								}
								JOINT LeftHandMiddle1
								{
									OFFSET 23.810104 0.000000 0.000000
									CHANNELS 3 Xrotation Yrotation Zrotation
									JOINT LeftHandMiddle2
									{
										OFFSET 7.176498 0.000000 0.000000
										CHANNELS 3 Xrotation Yrotation Zrotation
										JOINT LeftHandMiddle3
										{
											OFFSET 6.774902 0.000000 0.000000
											CHANNELS 3 Xrotation Yrotation Zrotation
											JOINT LeftHandMiddle4
											{
												OFFSET 5.403328 0.000000 0.000000
												CHANNELS 3 Xrotation Yrotation Zrotation
												End Site
												{
													OFFSET -0.027702 5.403244 0.017414
												}
											}
										}
									}
								}
								JOINT LeftHandRing1
								{
									OFFSET 22.908401 -0.839279 -6.020567
									CHANNELS 3 Xrotation Yrotation Zrotation
									JOINT LeftHandRing2
									{
										OFFSET 6.337502 0.000000 0.000000
										CHANNELS 3 Xrotation Yrotation Zrotation
										JOINT LeftHandRing3
										{
											OFFSET 5.779297 0.000000 0.000000
											CHANNELS 3 Xrotation Yrotation Zrotation
											JOINT LeftHandRing4
											{
												OFFSET 4.965698 0.000000 0.000000
												CHANNELS 3 Xrotation Yrotation Zrotation
												End Site
												{
													OFFSET 0.000000 4.965668 0.016186
												}
											}
										}
									}
								}
								JOINT LeftHandPinky1
								{
									OFFSET 20.037003 -1.530319 -10.950146
									CHANNELS 3 Xrotation Yrotation Zrotation
									JOINT LeftHandPinky2
									{
										OFFSET 5.254700 0.000000 0.000000
										CHANNELS 3 Xrotation Yrotation Zrotation
										JOINT LeftHandPinky3
										{
											OFFSET 4.810204 0.000000 0.000000
											CHANNELS 3 Xrotation Yrotation Zrotation
											JOINT LeftHandPinky4
											{
												OFFSET 3.647202 0.000000 0.000000
												CHANNELS 3 Xrotation Yrotation Zrotation
												End Site
												{
													OFFSET 0.000000 3.647186 0.011889
												}
											}
										}
									}
								}
							}
						}
					}
				}
				JOINT RightShoulder
				{
					OFFSET -15.141001 14.495407 -7.737500
					CHANNELS 3 Xrotation Yrotation Zrotation
					JOINT RightArm
					{
						OFFSET -9.308998 -2.777710 0.208500
						CHANNELS 3 Xrotation Yrotation Zrotation
						JOINT RightForeArm
						{
							OFFSET -29.972300 0.000000 0.000000
							CHANNELS 3 Xrotation Yrotation Zrotation
							JOINT RightHand
							{
								OFFSET -26.026505 0.000000 0.000000
								CHANNELS 3 Xrotation Yrotation Zrotation
								JOINT RightHandThumb1
								{
									OFFSET -12.240601 -7.148026 9.207092
									CHANNELS 3 Xrotation Yrotation Zrotation
									JOINT RightHandThumb2
									{
										OFFSET -4.138618 -2.389435 2.389433
										CHANNELS 3 Xrotation Yrotation Zrotation
										JOINT RightHandThumb3
										{
											OFFSET -2.726974 -1.574417 1.574421
											CHANNELS 3 Xrotation Yrotation Zrotation
											JOINT RightHandThumb4
											{
												OFFSET -3.941010 -2.275345 2.275343
												CHANNELS 3 Xrotation Yrotation Zrotation
												End Site
												{
													OFFSET 0.005814 5.087799 0.009927
												}
											}
										}
									}
								}
								JOINT RightHandIndex1
								{
									OFFSET -24.424698 -1.985657 5.953444
									CHANNELS 3 Xrotation Yrotation Zrotation
									JOINT RightHandIndex2
									{
										OFFSET -6.426697 0.000000 0.000000
										CHANNELS 3 Xrotation Yrotation Zrotation
										JOINT RightHandIndex3
										{
											OFFSET -5.337898 0.000000 0.000000
											CHANNELS 3 Xrotation Yrotation Zrotation
											JOINT RightHandIndex4
											{
												OFFSET -4.409401 0.000000 0.000000
												CHANNELS 3 Xrotation Yrotation Zrotation
												End Site
												{
													OFFSET 0.000000 4.409363 0.014408
												}
											}
										}
									}
								}
								JOINT RightHandMiddle1
								{
									OFFSET -23.810097 0.000000 0.000000
									CHANNELS 3 Xrotation Yrotation Zrotation
									JOINT RightHandMiddle2
									{
										OFFSET -7.176498 0.000000 0.000000
										CHANNELS 3 Xrotation Yrotation Zrotation
										JOINT RightHandMiddle3
										{
											OFFSET -6.774902 0.000000 0.000000
											CHANNELS 3 Xrotation Yrotation Zrotation
											JOINT RightHandMiddle4
											{
												OFFSET -5.403328 0.000000 0.000000
												CHANNELS 3 Xrotation Yrotation Zrotation
												End Site
												{
													OFFSET 0.027702 5.403244 0.017457
												}
											}
										}
									}
								}
								JOINT RightHandRing1
								{
									OFFSET -22.908302 -0.839325 -6.020576
									CHANNELS 3 Xrotation Yrotation Zrotation
									JOINT RightHandRing2
									{
										OFFSET -6.337502 0.000000 0.000000
										CHANNELS 3 Xrotation Yrotation Zrotation
										JOINT RightHandRing3
										{
											OFFSET -5.779297 0.000000 0.000000
											CHANNELS 3 Xrotation Yrotation Zrotation
											JOINT RightHandRing4
											{
												OFFSET -4.965698 0.000000 0.000000
												CHANNELS 3 Xrotation Yrotation Zrotation
												End Site
												{
													OFFSET 0.000000 4.965668 0.016226
												}
											}
										}
									}
								}
								JOINT RightHandPinky1
								{
									OFFSET -20.037003 -1.530334 -10.950259
									CHANNELS 3 Xrotation Yrotation Zrotation
									JOINT RightHandPinky2
									{
										OFFSET -5.254700 0.000000 0.000000
										CHANNELS 3 Xrotation Yrotation Zrotation
										JOINT RightHandPinky3
										{
											OFFSET -4.810204 0.000000 0.000000
											CHANNELS 3 Xrotation Yrotation Zrotation
											JOINT RightHandPinky4
											{
												OFFSET -3.647202 0.000000 0.000000
												CHANNELS 3 Xrotation Yrotation Zrotation
												End Site
												{
													OFFSET 0.000000 3.647186 0.011917
												}
											}
										}
									}
								}
							}
						}
					}
				}
			}
		}
	}
	JOINT LeftUpLeg
	{
		OFFSET 15.427100 -6.655098 0.678600
		CHANNELS 3 Xrotation Yrotation Zrotation
		JOINT LeftLeg
		{
			OFFSET 4.081073 -39.591068 13.024000
			CHANNELS 3 Xrotation Yrotation Zrotation
			JOINT LeftFoot
			{
				OFFSET -4.081074 -37.707932 -15.979700
				CHANNELS 3 Xrotation Yrotation Zrotation
				JOINT LeftToeBase
				{
					OFFSET 5.346399 -15.068900 20.645000
					CHANNELS 3 Xrotation Yrotation Zrotation
					JOINT LeftToe_End
					{
						OFFSET 2.754700 0.931300 11.300900
						CHANNELS 3 Xrotation Yrotation Zrotation
						End Site
						{
							OFFSET 0.000000 11.669021 0.000000
						}
					}
				}
			}
		}
	}
	JOINT RightUpLeg
	{
		OFFSET -15.569500 -6.655098 0.678600
		CHANNELS 3 Xrotation Yrotation Zrotation
		JOINT RightLeg
		{
			OFFSET -4.081825 -39.591045 13.023800
			CHANNELS 3 Xrotation Yrotation Zrotation
			JOINT RightFoot
			{
				OFFSET 4.081824 -37.707954 -15.979600
				CHANNELS 3 Xrotation Yrotation Zrotation
				JOINT RightToeBase
				{
					OFFSET -5.346400 -15.068900 20.645000
					CHANNELS 3 Xrotation Yrotation Zrotation
					JOINT RightToe_End
					{
						OFFSET -2.754700 0.931300 11.300900
						CHANNELS 3 Xrotation Yrotation Zrotation
						End Site
						{
							OFFSET 0.000000 11.669021 0.000000
						}
					}
				}
			}
		}
	}
}
MOTION
Frames: 4
Frame Time: 0.033333
1.486594 90.320435 -1.743509 -16.971922 -39.313964 -8.510891 7.995113 0.151677 -1.102903 16.413503 -0.122651 -0.746871 16.413544 -0.190291 -0.722545 0.371161 7.480970 0.837543 -6.982125 21.597268 11.883002 0.000001 0.000000 -0.000000 -37.571071 -4.822503 1.545824 -41.635754 -7.022391 -61.689066 0.000046 -64.987215 0.000050 -119.359646 1.121395 32.546411 4.709225 9.560784 3.109843 19.474954 -1.473652 7.634874 -4.535005 -9.612594 1.489121 -0.000001 0.000002 -0.000002 -0.220999 3.922697 -36.746848 2.942323 5.079017 -60.146885 0.513685 2.400827 -24.150490 0.000003 0.000000 -0.000001 0.402681 5.504519 -52.452427 3.387201 5.308657 -65.058317 0.282019 1.797458 -17.832391 -0.000003 -0.000000 -0.000001 -0.079225 5.734099 -61.061338 4.055053 5.569522 -72.095037 0.582667 2.548962 -25.748003 -0.000001 -0.000003 -0.000000 -6.564050 4.545187 -72.423180 3.299623 5.267208 -64.107800 0.175347 1.424023 -14.038887 -0.000003 0.000000 -0.000004 -41.176304 -8.605643 -9.942312 -46.813509 58.240012 100.940968 0.000376 98.445190 -0.000362 -52.461874 -17.217508 -29.274802 8.375225 -4.906576 11.021280 21.616104 -18.184895 -18.386441 -0.699602 -49.821497 -32.531423 -0.000001 -0.000000 0.000000 -0.919990 1.683602 12.434586 0.748119 -2.533462 32.898282 0.615643 -2.316061 29.767819 0.000001 0.000000 -0.000000 3.408369 -7.182575 51.650283 6.296935 -4.359536 110.636251 0.248717 -1.503056 18.790279 0.000000 -0.000000 -0.000000 -3.350941 -2.599172 57.010653 5.440868 -4.590889 99.698291 1.689402 -3.590703 50.382231 0.000000 0.000001 -0.000001 -3.998492 -3.302971 64.593973 4.059015 -4.618664 82.612449 2.315701 -4.026892 59.789434 -0.000000 -0.000000 0.000003 -19.693430 43.635893 27.886628 23.867210 -0.358709 -1.056246 1.173268 2.021940 -4.100298 -0.000048 0.000001 0.000003 0.000000 -0.000001 -0.000000 8.090770 5.369394 -8.080650 28.379906 0.132186 1.351585 -21.559793 -18.002062 5.108858 -0.020497 0.000003 0.000004 0.000000 0.000002 0.000000 
1.494051 90.310913 -1.752489 -16.971791 -39.311997 -8.510837 7.988641 0.151176 -1.090878 16.485042 -0.122654 -0.746868 16.403579 -0.190300 -0.722541 0.377517 7.472270 0.836155 -6.939384 21.573398 11.875779 0.000001 -0.000003 0.000000 -37.561976 -4.899251 1.575234 -41.615663 -6.943841 -61.608463 0.000109 -65.064204 0.000109 -119.416541 1.075923 32.559365 4.672573 9.570999 3.126417 19.477133 -1.472898 7.635472 -4.534031 -9.609196 1.486620 -0.000001 -0.000002 0.000000 -0.221673 3.922160 -36.752066 2.941709 5.078659 -60.139857 0.513408 2.400216 -24.144029 0.000002 -0.000001 -0.000001 0.397864 5.498182 -52.403506 3.385360 5.307801 -65.038243 0.281861 1.796985 -17.827603 -0.000000 -0.000002 0.000001 -0.082222 5.728786 -61.010528 4.055012 5.569504 -72.094655 0.582667 2.548967 -25.748003 -0.000002 0.000000 -0.000000 -6.569770 4.540866 -72.411275 3.299623 5.267209 -64.107800 0.175342 1.424022 -14.039008 0.000001 -0.000003 0.000001 -41.174399 -8.557903 -9.849059 -46.736594 58.204065 100.845899 -0.000041 98.469417 0.000033 -52.418567 -17.326931 -29.263201 8.383145 -4.930432 11.024360 21.605253 -18.196269 -18.386451 -0.699615 -49.821500 -32.531447 -0.000003 0.000001 0.000001 -0.921971 1.683713 12.456288 0.748120 -2.533463 32.898286 0.615643 -2.316061 29.767815 -0.000000 0.000000 0.000000 3.409050 -7.182740 51.658176 6.295887 -4.359927 110.622481 0.248716 -1.503055 18.790279 -0.000001 0.000000 -0.000000 -3.350979 -2.598213 57.003891 5.441860 -4.590713 99.710783 1.690182 -3.591360 50.394666 0.000000 -0.000000 -0.000002 -3.998740 -3.300827 64.580046 4.058992 -4.618687 82.612449 2.315698 -4.026884 59.789427 -0.000000 0.000000 0.000001 -19.708338 43.638103 27.946916 23.872239 -0.338817 -1.146909 1.175335 1.974610 -4.051061 -0.032324 -0.000001 0.000001 0.000000 -0.000000 0.000000 8.071607 5.355396 -8.103260 28.412880 0.041343 1.345601 -21.552688 -17.901969 5.173878 0.013946 -0.000003 0.000001 -0.000000 -0.000003 0.000000 
1.500295 90.304886 -1.764353 -16.971714 -39.308289 -8.506047 7.979487 0.150371 -1.081710 16.545336 -0.122653 -0.746873 16.432440 -0.190303 -0.722545 0.387161 7.469837 0.837674 -6.891299 21.556022 11.870007 -0.000001 0.000000 0.000002 -37.566467 -4.928476 1.563847 -41.648031 -6.917454 -61.569122 -0.000016 -65.094606 -0.000019 -119.436117 1.058171 32.563248 4.647613 9.579014 3.137242 19.479307 -1.472908 7.636297 -4.533202 -9.607171 1.484302 0.000001 0.000002 -0.000001 -0.222250 3.921775 -36.757452 2.941053 5.078292 -60.132364 0.513263 2.399883 -24.140416 -0.000000 0.000001 -0.000002 0.394401 5.493724 -52.370493 3.384285 5.307301 -65.026755 0.281780 1.796737 -17.824922 -0.000001 0.000001 0.000001 -0.088202 5.720725 -60.944644 4.054579 5.569358 -72.090113 0.582670 2.548964 -25.748003 0.000002 0.000000 0.000002 -6.576025 4.529814 -72.368019 3.299624 5.267208 -64.107800 0.175120 1.423115 -14.029811 -0.000001 -0.000002 -0.000004 -41.167627 -8.545390 -9.854056 -46.784412 58.162879 100.849574 0.000239 98.471664 -0.000270 -52.386055 -17.363565 -29.242007 8.394621 -4.965416 11.028568 21.595043 -18.207061 -18.386482 -0.702915 -49.821148 -32.535446 -0.000001 0.000001 0.000000 -0.922113 1.675171 12.477907 0.748119 -2.533462 32.898282 0.615643 -2.316060 29.767822 0.000000 0.000001 -0.000000 3.409311 -7.182828 51.661331 6.295817 -4.359964 110.621553 0.248716 -1.503055 18.790276 -0.000000 -0.000000 -0.000000 -3.350963 -2.598934 57.008867 5.440148 -4.591031 99.689186 1.688842 -3.590245 50.373168 -0.000000 -0.000000 -0.000001 -3.998802 -3.300334 64.576768 4.059124 -4.618692 82.613945 2.315805 -4.026943 59.790943 -0.000000 -0.000001 0.000000 -19.701629 43.600844 27.915415 23.890018 -0.292720 -1.113760 1.174693 1.966160 -4.075708 -0.055287 -0.000003 0.000003 0.000000 -0.000001 -0.000000 8.053485 5.376597 -8.086800 28.437276 0.055677 1.331099 -21.558287 -17.945219 5.165649 0.026612 -0.000026 -0.000002 -0.000000 0.000002 -0.000000 
1.506213 90.299080 -1.777395 -16.971635 -39.302643 -8.499280 7.967299 0.149580 -1.072774 16.594848 -0.122653 -0.746875 16.462510 -0.190290 -0.722550 0.398633 7.470287 0.840128 -6.840576 21.552454 11.868052 -0.000000 0.000000 -0.000001 -37.564381 -4.936533 1.570344 -41.679775 -6.914598 -61.555564 0.000073 -65.098314 0.000062 -119.468014 1.038369 32.546995 4.628568 9.586304 3.145028 19.481767 -1.473513 7.637433 -4.532399 -9.605960 1.481889 0.000000 0.000004 -0.000002 -0.222823 3.921392 -36.763019 2.940369 5.077879 -60.124550 0.513174 2.399710 -24.138529 -0.000004 0.000000 -0.000001 0.391557 5.490180 -52.345620 3.383699 5.307034 -65.020327 0.281748 1.796598 -17.823561 0.000001 0.000003 0.000002 -0.092555 5.716033 -60.913396 4.054247 5.569255 -72.086978 0.582666 2.548967 -25.748007 -0.000002 0.000001 0.000002 -6.582605 4.520448 -72.333438 3.299629 5.267207 -64.107800 0.174848 1.422023 -14.018952 -0.000001 -0.000001 0.000001 -41.168129 -8.540145 -9.857645 -46.821377 58.132539 100.853699 0.000049 98.472231 -0.000050 -52.360968 -17.399485 -29.224023 8.406184 -5.005117 11.033330 21.585281 -18.217361 -18.386492 -0.709653 -49.820455 -32.543635 0.000001 -0.000001 0.000001 -0.922043 1.666288 12.498268 0.748120 -2.533463 32.898286 0.615642 -2.316061 29.767822 -0.000000 0.000000 -0.000001 3.408801 -7.182665 51.655402 6.296141 -4.359839 110.625972 0.248716 -1.503055 18.790276 -0.000000 0.000000 0.000000 -3.350967 -2.599147 57.010394 5.439077 -4.591211 99.675737 1.688008 -3.589525 50.359726 0.000000 0.000002 -0.000002 -3.998914 -3.299360 64.570498 4.059271 -4.618723 82.615878 2.315941 -4.027030 59.792856 -0.000000 -0.000000 0.000001 -19.702801 43.580264 27.899023 23.901257 -0.261500 -1.099373 1.178529 1.950793 -4.083971 -0.042599 -0.000011 0.000002 -0.000000 0.000000 0.000000 8.035833 5.376436 -8.091796 28.458277 0.063677 1.339624 -21.563046 -17.952944 5.155574 0.028658 0.000002 0.000001 -0.000000 0.000000 0.000000 
